<svg xmlns="http://www.w3.org/2000/svg" xmlns:ev="http://www.w3.org/2001/xml-events" xmlns:xlink="http://www.w3.org/1999/xlink" width="816" height="11in" class="st38" color-interpolation-filters="sRGB" viewBox="0 0 612 792" xml:space="preserve"><style type="text/css">.st1{fill:#a8d08d;stroke:#375623;stroke-width:1.5}.st2{fill:#000;font-family:Calibri;font-size:1.08334em;font-weight:700}.st3,.st4{fill:#ffd965;stroke:#7f6000;stroke-width:1.5}.st4{fill:#f7cbac;stroke:#833c0b}.st5{fill:#7f7f7f;stroke:#595959;stroke-width:.25}.st6{fill:#feffff;font-family:Calibri;font-size:.833336em}.st7{fill:#fff2cc;stroke:#375623;stroke-width:.25}.st8{fill:#000;font-family:Calibri;font-size:.833336em;font-weight:700}.st9{font-size:1em;font-style:italic}.st10,.st11{fill:#fbe5d5;stroke:#375623;stroke-width:.25}.st11{fill:#e2efd9;stroke-width:1}.st12{fill:#9cc3e5;stroke:#1e4e79;stroke-width:1.5}.st13{font-size:.923075em;font-weight:400}.st14{fill:#90aadb;stroke:#203864;stroke-width:1.5}.st15,.st16{fill:#deebf6;stroke:#375623;stroke-width:1}.st16{fill:#dae2f3;stroke:#203864}.st17{fill:#d8d8d8;stroke:#c7c8c8;stroke-width:.25}.st18{fill:#000;font-family:Calibri;font-size:.833336em}.st19{font-size:.799995em;font-weight:400}.st20,.st21{fill:#bfbfbf;stroke:#000;stroke-width:.25}.st21{fill:none;stroke:none}.st22{fill:#c00000;font-family:Calibri;font-size:.833336em;font-weight:700}.st23{font-size:1em}.st24,.st25{stroke:#c00000;stroke-width:3}.st25{stroke-linecap:round;stroke-linejoin:round}.st26,.st27{fill:#c00000;font-family:Calibri;font-size:3em;font-weight:700}.st27{fill:#000;font-size:1.00001em}.st28{font-size:.83333em}.st29{fill:#a5a5a5;font-size:1em;font-weight:400}.st30{fill:#deebf6;stroke-width:.25}.st30,.st31{stroke:#375623}.st31,.st32{stroke-width:.25}.st31{fill:#e2efd9}.st32{fill:#7f7f7f;stroke:none}.st33{fill:#feffff;font-family:Calibri;font-size:.666664em}.st34,.st35{fill:#deebf6;stroke:none;stroke-width:1}.st35{fill:#e2efd9}.st36,.st37{fill:#fff2cc;stroke:none;stroke-width:.25}.st37{fill:#fbe5d5}.st38{fill:none;fill-rule:evenodd;font-size:12px;overflow:visible;stroke-linecap:square;stroke-miterlimit:3}</style><g><title>Overview</title><g id="shape1-1" transform="translate(27,-407.252)"><title>Rectangle.6</title><desc>System Security Plan (SSP) Model</desc><rect width="270" height="131.623" x="0" y="660.377" class="st1"/><text x="4" y="676.08" class="st2">System Security Plan (SSP) Model</text></g><g id="shape2-4" transform="translate(27,-242.588)"><title>Sheet.2</title><desc>Assessment Plan Model</desc><rect width="270" height="158.25" x="0" y="633.75" class="st3"/><text x="4" y="649.45" class="st2">Assessment Plan Model</text></g><g id="shape3-7" transform="translate(27,-29.25)"><title>Sheet.3</title><desc>Assessment Results Model</desc><rect width="270" height="207.488" x="0" y="584.512" class="st4"/><text x="4" y="600.21" class="st2">Assessment Results Model</text></g><g id="shape4-10" transform="translate(41.9318,-361.65)"><title>Rectangle.46</title><desc>Metadata</desc><rect width="216" height="18" x="0" y="774" class="st5"/><text x="88.08" y="786" class="st6">Metadata</text></g><g id="shape5-13" transform="translate(41.9318,-250.463)"><title>Rectangle.5</title><desc>Back Matter</desc><rect width="216" height="18" x="0" y="774" class="st5"/><text x="83.12" y="786" class="st6">Back Matter</text></g><g id="shape6-16" transform="translate(41.9318,-335.963)"><title>Rectangle.6</title><desc>Objectives [Planned]</desc><rect width="216" height="18" x="0" y="774" class="st7"/><text x="64.94" y="786" class="st8">Objectives<tspan class="st9"> </tspan><tspan class="st9">[</tspan><tspan class="st9">Planned</tspan><tspan class="st9">]</tspan></text></g><g id="shape7-23" transform="translate(41.9318,-198.038)"><title>Rectangle.7</title><desc>Metadata</desc><rect width="216" height="18" x="0" y="774" class="st5"/><text x="88.08" y="786" class="st6">Metadata</text></g><g id="shape8-26" transform="translate(41.9318,-36)"><title>Rectangle.8</title><desc>Back Matter</desc><rect width="216" height="18" x="0" y="774" class="st5"/><text x="83.12" y="786" class="st6">Back Matter</text></g><g id="shape9-29" transform="translate(41.9318,-149.213)"><title>Rectangle.9</title><desc>Assessment Subject [Actual]</desc><rect width="216" height="18" x="0" y="774" class="st10"/><text x="49.29" y="786" class="st8">Assessment Subject<tspan class="st9"> </tspan><tspan class="st9">[</tspan><tspan class="st9">Actual</tspan><tspan class="st9">]</tspan></text></g><g id="shape10-36" transform="translate(41.9318,-126.713)"><title>Rectangle.10</title><desc>Assets (Tools, Teams, etc.) [Actual]</desc><rect width="216" height="18" x="0" y="774" class="st10"/><text x="35.67" y="786" class="st8">Assets (Tools, Teams, etc.)<tspan class="st9"> </tspan><tspan class="st9">[</tspan><tspan class="st9">Actual</tspan><tspan class="st9">]</tspan></text></g><g id="shape11-43" transform="translate(41.9318,-104.213)"><title>Rectangle.11</title><desc>Activities [Actual]</desc><rect width="216" height="18" x="0" y="774" class="st10"/><text x="71.15" y="786" class="st8">Activities<tspan class="st9"> </tspan><tspan class="st9">[</tspan><tspan class="st9">Actual</tspan><tspan class="st9">]</tspan></text></g><g id="shape12-50" transform="translate(41.9318,-58.5)"><title>Rectangle.12</title><desc>Results</desc><rect width="216" height="18" x="0" y="774" class="st10"/><text x="93.03" y="786" class="st8">Results</text></g><g id="shape13-53" transform="translate(41.9318,-293.213)"><title>Rectangle.13</title><desc>Assets (Tools, Teams, ROE, etc.) [Planned]</desc><rect width="216" height="18" x="0" y="774" class="st7"/><text x="21.05" y="786" class="st8">Assets (Tools, Teams, ROE, etc.)<tspan class="st9"> </tspan><tspan class="st9">[</tspan><tspan class="st9">Planned</tspan><tspan class="st9">]</tspan></text></g><g id="shape14-60" transform="translate(41.9318,-271.838)"><title>Rectangle.14</title><desc>Activities [Planned]</desc><rect width="216" height="18" x="0" y="774" class="st7"/><text x="67.58" y="786" class="st8">Activities<tspan class="st9"> </tspan><tspan class="st9">[</tspan><tspan class="st9">Planned</tspan><tspan class="st9">]</tspan></text></g><g id="shape16-67" transform="translate(41.9318,-498.875)"><title>Rectangle.16</title><desc>Metadata</desc><rect width="216" height="18" x="0" y="774" class="st5"/><text x="88.08" y="786" class="st6">Metadata</text></g><g id="shape17-70" transform="translate(41.9318,-474.75)"><title>Rectangle.17</title><desc>System Characteristics</desc><rect width="216" height="18" x="0" y="774" class="st11"/><text x="61.39" y="786" class="st8">System Characteristics</text></g><g id="shape18-73" transform="translate(41.9318,-414)"><title>Rectangle.18</title><desc>Back Matter</desc><rect width="216" height="18" x="0" y="774" class="st5"/><text x="83.12" y="786" class="st6">Back Matter</text></g><g id="shape19-76" transform="translate(41.9318,-454.5)"><title>Rectangle.19</title><desc>System Implementation</desc><rect width="216" height="18" x="0" y="774" class="st11"/><text x="58.2" y="786" class="st8">System Implementation</text></g><g id="shape20-79" transform="translate(41.9318,-434.25)"><title>Rectangle.20</title><desc>Control Implementation</desc><rect width="216" height="18" x="0" y="774" class="st11"/><text x="57.8" y="786" class="st8">Control Implementation</text></g><g id="shape21-82" transform="translate(27,-543.572)"><title>Rectangle.1</title><desc>Profile Model: Baselines and Catalog Tailoring</desc><rect width="270" height="101.25" x="0" y="690.75" class="st12"/><text x="4" y="706.45" class="st2">Profile Model: <tspan class="st13">Baselines and Catalog Tailoring</tspan></text></g><g id="shape22-86" transform="translate(27,-649.125)"><title>Rectangle.2</title><desc>Catalog: Controls and Control Objectives</desc><rect width="270" height="122.625" x="0" y="669.375" class="st14"/><text x="4" y="685.08" class="st2">Catalog: <tspan class="st13">Controls and Control Objectives</tspan></text></g><g id="shape23-90" transform="translate(41.9318,-584.143)"><title>Rectangle.23</title><desc>Control Baseline</desc><rect width="216" height="18" x="0" y="774" class="st15"/><text x="73.99" y="786" class="st8">Control Baseline</text></g><g id="shape24-93" transform="translate(41.9318,-675)"><title>Rectangle.24</title><desc>Controls</desc><rect width="216" height="54" x="0" y="738" class="st16"/><text x="90.56" y="751" class="st8">Controls</text></g><g id="shape25-96" transform="translate(50.9318,-680.175)"><title>Rectangle.25</title><desc>Assessment Objectives &amp; Activities</desc><rect width="198" height="14.4" x="0" y="777.6" class="st17"/><text x="28.45" y="787.8" class="st18">Assessment Objectives &amp; Activities</text></g><g id="shape26-99" transform="translate(41.9318,-607.768)"><title>Rectangle.26</title><desc>Metadata</desc><rect width="216" height="14.4" x="0" y="777.6" class="st5"/><text x="88.08" y="787.8" class="st6">Metadata</text></g><g id="shape27-102" transform="translate(41.9318,-547.172)"><title>Rectangle.27</title><desc>Back Matter</desc><rect width="216" height="14.4" x="0" y="777.6" class="st5"/><text x="83.12" y="787.8" class="st6">Back Matter</text></g><g id="shape28-105" transform="translate(41.9318,-732.375)"><title>Rectangle.28</title><desc>Metadata</desc><rect width="216" height="18" x="0" y="774" class="st5"/><text x="88.08" y="786" class="st6">Metadata</text></g><g id="shape29-108" transform="translate(41.9318,-653.625)"><title>Rectangle.29</title><desc>Back Matter</desc><rect width="216" height="18" x="0" y="774" class="st5"/><text x="83.12" y="786" class="st6">Back Matter</text></g><g id="shape30-111" transform="translate(50.9318,-697.5)"><title>Rectangle.30</title><desc>Control Definition</desc><rect width="198" height="14.4" x="0" y="777.6" class="st17"/><text x="62.64" y="787.8" class="st18">Control Definition</text></g><g id="shape31-114" transform="translate(42.3908,-563.893)"><title>Rectangle.31</title><desc>Control Modifications (to Definitions and Assessment Goals/Ac...</desc><rect width="216" height="18" x="0" y="774" class="st15"/><text x="62.76" y="780.75" class="st8">Control Modifications<tspan x="30.18" class="st19" dy="1.125em">(</tspan><tspan class="st19">to Definitions and Assessment Goals</tspan><tspan class="st19">/</tspan><tspan class="st19">Activities</tspan><tspan class="st19">)</tspan></text></g><g id="shape32-122" transform="translate(312.75,-242.588)"><title>Rectangle.32</title><desc>Assessment Model(s)</desc><rect width="270" height="158.25" x="0" y="633.75" class="st3"/><text x="4" y="649.45" class="st2">Assessment Model(s)</text></g><g id="shape33-125" transform="translate(312.75,-407.25)"><title>Rectangle.33</title><desc>Component Model</desc><rect width="270" height="131.625" x="0" y="660.375" class="st1"/><text x="4" y="676.08" class="st2">Component Model</text></g><g id="shape34-128" transform="translate(312.75,-86.2125)"><title>Rectangle.34</title><desc>Plan of Actions and Milestones (POA&amp;M)</desc><rect width="270" height="150.525" x="0" y="641.475" class="st4"/><text x="4" y="657.18" class="st2">Plan of Actions and Milestones (POA&amp;M)</text></g><g id="shape36-131" transform="translate(329.625,-185.213)"><title>Rectangle.36</title><desc>Metadata</desc><rect width="216" height="18" x="0" y="774" class="st5"/><text x="88.08" y="786" class="st6">Metadata</text></g><g id="shape37-134" transform="translate(329.625,-91.6875)"><title>Rectangle.37</title><desc>Back Matter</desc><rect width="216" height="18" x="0" y="774" class="st5"/><text x="83.12" y="786" class="st6">Back Matter</text></g><g id="shape38-137" transform="translate(329.625,-113.625)"><title>Rectangle.38</title><desc>POA&amp;M Entries</desc><rect width="216" height="42.188" x="0" y="749.813" class="st10"/><text x="75.53" y="762.81" class="st8">POA&amp;M Entries</text></g><g id="shape39-140" transform="translate(347.625,-119.813)"><title>Rectangle.39</title><desc>Deviation Requests (DRs)</desc><rect width="180" height="18" x="0" y="774" class="st20"/><text x="38.98" y="786" class="st6">Deviation Requests (DRs)</text></g><g id="shape40-143" transform="translate(339.75,-459)"><title>Rectangle.40</title><desc>The component model is being developed separately, and is int...</desc><rect width="216" height="18" x="0" y="774" class="st21"/><text x="21.07" y="774" class="st22">The component model is being developed <tspan x="5.68" class="st23" dy="1.2em">separately</tspan>, and is intended to be released as part <tspan x="68.75" class="st23" dy="1.2em">of OSCAL </tspan>1.0-MR-3</text></g><g id="shape41-148" transform="translate(22.5,-22.5)"><title>Sheet.41</title><path d="M0 417.79 L0 792 L567 792 L567 586.66" class="st24"/></g><g id="shape42-151" transform="translate(589.5,1344.45) rotate(180)"><title>Sheet.42</title><path d="M0 792 L283.5 792" class="st25"/></g><g id="shape44-154" transform="translate(22.5,-240.338)"><title>Sheet.44</title><path d="M283.5 792 L283.5 628.5 L0 628.5 L0 629.96 L0 636.53" class="st24"/></g><g id="shape45-157" transform="translate(339.645,-32.175)"><title>Rectangle.45</title><desc>SCOPE</desc><rect width="207.105" height="38.7" x="0" y="753.3" class="st21"/><text x="54.98" y="783.45" class="st26">SCOPE</text></g><g id="shape47-160" transform="translate(298.15,-641.25)"><title>Rectangle.47</title><desc>Open Security Controls Assessment Language (OSCAL) High-Level...</desc><rect width="295.2" height="131.625" x="0" y="660.375" class="st21"/><text x="13.23" y="675.18" class="st27">Open Security Controls Assessment Language (OSCAL)<tspan x="47.82" class="st23" dy="1.2em">High</tspan>-Level Models, Sections, and Scope:<tspan x="105.96" class="st23" dy="1.2em">Assessment Plan</tspan><tspan x="98.85" class="st23" dy="1.2em">Assessment Results</tspan><tspan x="47.66" class="st23" dy="1.2em">Plan of Action and Milestones </tspan>(POA&amp;M)<tspan x="115.45" class="st28" dy="2.7em">March </tspan><tspan class="st28">16</tspan><tspan class="st28">, </tspan><tspan class="st28">2020</tspan><tspan x="21.33" class="st29" dy="3.55em">Security Assessment Plan </tspan><tspan class="st29">(</tspan><tspan class="st29">SAP</tspan><tspan class="st29">) </tspan><tspan class="st29">via Assessment Plan</tspan><tspan x="8.04" class="st29" dy="1.2em">Security Assessment Report </tspan><tspan class="st29">(</tspan><tspan class="st29">SAR</tspan><tspan class="st29">) </tspan><tspan class="st29">via Assessment Results</tspan></text></g><g id="shape48-181" transform="translate(1067.03,138.045) rotate(90)"><title>Simple Arrow</title><desc>IMPORT</desc><path d="M0 792 L12 780 L12 786 L50.4 786 L50.4 792 L50.4 798 L12 798 L12 804 L0 792 Z" class="st30"/><text x="-42.24" y="-789" class="st8" transform="rotate(180)">IMPORT</text></g><g id="shape51-184" transform="translate(1067.03,245.925) rotate(90)"><title>Simple Arrow.51</title><desc>IMPORT</desc><path d="M0 792 L12 780 L12 786 L50.4 786 L50.4 792 L50.4 798 L12 798 L12 804 L0 792 Z" class="st31"/><text x="-42.24" y="-789" class="st8" transform="rotate(180)">IMPORT</text></g><g id="shape53-187" transform="translate(1067.03,383.213) rotate(90)"><title>Simple Arrow.53</title><desc>IMPORT</desc><path d="M0 792 L12 780 L12 786 L50.4 786 L50.4 792 L50.4 798 L12 798 L12 804 L0 792 Z" class="st7"/><text x="-42.24" y="-789" class="st8" transform="rotate(180)">IMPORT</text></g><g id="shape55-190" transform="translate(1067.03,547.387) rotate(90)"><title>Simple Arrow.55</title><desc>IMPORT</desc><path d="M0 792 L12 780 L12 786 L50.4 786 L50.4 792 L50.4 798 L12 798 L12 804 L0 792 Z" class="st10"/><text x="-42.24" y="-789" class="st8" transform="rotate(180)">IMPORT</text></g><g id="shape56-193" transform="translate(1381.5,553.012) rotate(90)"><title>Sheet.56</title><path d="M0 792 L10.24 792" class="st25"/></g><g id="shape57-196" transform="translate(329.625,-180.164)"><title>Rectangle.57</title><rect width="239.318" height="1.097" x="0" y="790.903" class="st32"/></g><g id="shape59-198" transform="translate(550.534,-214.463)"><title>Rectangle.59</title><desc>SSP</desc><rect width="25.245" height="18" x="0" y="774" class="st1"/><text x="5.23" y="787" class="st8">SSP</text></g><g id="shape58-201" transform="translate(1355.16,575.006) rotate(90)"><title>Simple Arrow.58</title><desc>IMPORT</desc><path d="M0 792 L12 780 L12 786 L36 786 L36 792 L36 798 L12 798 L12 804 L0 792 Z" class="st32"/><text x="-31.26" y="-789.6" class="st33" transform="rotate(180)">IMPORT</text></g><g id="shape62-204" transform="translate(41.9318,-314.588)"><title>Rectangle.62</title><desc>Assessment Subject [Planned]</desc><rect width="216" height="18" x="0" y="774" class="st7"/><text x="45.72" y="786" class="st8">Assessment Subject<tspan class="st9"> </tspan><tspan class="st9">[</tspan><tspan class="st9">Planned</tspan><tspan class="st9">]</tspan></text></g><g id="shape63-211" transform="translate(41.9318,-171.713)"><title>Rectangle.63</title><desc>Objectives [Actual]</desc><rect width="216" height="18" x="0" y="774" class="st10"/><text x="68.51" y="786" class="st8">Objectives<tspan class="st9"> </tspan><tspan class="st9">[</tspan><tspan class="st9">Actual</tspan><tspan class="st9">]</tspan></text></g><g id="shape64-218" transform="translate(41.9318,-81)"><title>Rectangle.64</title><desc>Evidence Inventory</desc><rect width="216" height="18" x="0" y="774" class="st10"/><text x="68.2" y="786" class="st8">Evidence Inventory</text></g><g id="shape65-221" transform="translate(329.625,-159.75)"><title>Rectangle.65</title><desc>Evidence Inventory</desc><rect width="216" height="18" x="0" y="774" class="st10"/><text x="68.2" y="786" class="st8">Evidence Inventory</text></g><g id="shape73-224" transform="translate(339.75,-310.5)"><title>Rectangle.73</title><desc>One or more models related to assessment activities will be d...</desc><rect width="216" height="18" x="0" y="774" class="st21"/><text x="18.63" y="738" class="st22">One or more models related to assessment <tspan x="7.25" class="st23" dy="1.2em">activities will be developed as part of OSCAL </tspan>2.0, <tspan x="74.26" class="st23" dy="1.2em">later in CY </tspan>2020.<tspan x="5.65" class="st23" dy="2.4em">While the exact nature has not been determined</tspan>, <tspan x="10.97" class="st23" dy="1.2em">NIST</tspan>’s goal is to enable automated assessment <tspan x="10.51" class="st23" dy="1.2em">activities such as configuration verification and </tspan><tspan x="15.12" class="st23" dy="1.2em">scanning</tspan>, suitable for both point-in-time and <tspan x="39.92" class="st23" dy="1.2em">continuous assessment activites</tspan>.</text></g><g id="shape49-234" transform="translate(41.9318,-603.555)"><title>Rectangle.49</title><rect width="239.318" height="2.938" x="0" y="789.062" class="st34"/></g><g id="shape50-236" transform="translate(41.9318,-494.755)"><title>Rectangle.50</title><rect width="239.318" height="2.938" x="0" y="789.062" class="st35"/></g><g id="shape52-238" transform="translate(41.9318,-356.625)"><title>Rectangle.52</title><rect width="239.318" height="2.938" x="0" y="789.062" class="st36"/></g><g id="shape54-240" transform="translate(41.9318,-192.375)"><title>Rectangle.54</title><rect width="239.318" height="2.934" x="0" y="789.066" class="st37"/></g></g></svg>