<svg xmlns="http://www.w3.org/2000/svg" xmlns:ev="http://www.w3.org/2001/xml-events" xmlns:xlink="http://www.w3.org/1999/xlink" width="17in" height="11in" class="st36" color-interpolation-filters="sRGB" viewBox="0 0 1224 792" xml:space="preserve"><style type="text/css">.st1{fill:#fbe5d5;stroke:#7f6000;stroke-width:1.5}.st2{fill:#000;font-family:Calibri;font-size:.833336em;font-weight:700}.st3{font-size:1em;font-weight:400}.st4{fill:#bfbfbf;stroke:#000;stroke-width:.25}.st5{fill:#feffff;font-family:Calibri;font-size:.833336em;font-weight:700}.st6{font-size:1em;font-style:italic;font-weight:400}.st7{stroke:#bfbfbf;stroke-linecap:round;stroke-linejoin:round;stroke-width:.25}.st8{fill:#a8d08d;stroke:#375623;stroke-width:1.5}.st9{fill:#000;font-family:Calibri;font-size:1.16666em;font-weight:700}.st10{fill:#f7cbac;stroke:#833c0b;stroke-width:1.5}.st11{font-size:.714294em;font-weight:400}.st12{fill:#7f7f7f;stroke:#595959;stroke-width:.25}.st13{fill:#feffff;font-family:Calibri;font-size:.833336em}.st14{stroke:#375623;stroke-width:.25}.st14,.st15{fill:#fbe5d5}.st16{stroke:#375623;stroke-width:.25}.st17{fill:#ffd965;stroke:#7f6000;stroke-width:1.5}.st18{fill:#3c63ac;stroke:#30518f;stroke-width:.75}.st19,.st20{fill:#fff2cc;stroke:#375623;stroke-width:.25}.st20{fill:none;stroke:none}.st21{fill:#fff2cc;stroke:#7f6000;stroke-width:1.5}.st22{fill:#a8d08d;stroke:#c7c8c8;stroke-width:.25}.st23{fill:#000;font-family:Calibri;font-size:.833336em;font-style:italic;font-weight:700}.st24{font-style:normal;font-weight:400}.st24,.st25{font-size:1em}.st26{stroke:#bfbfbf;stroke-linecap:round;stroke-linejoin:round;stroke-width:4.5}.st27{visibility:visible}.st28{fill:#000;fill-opacity:.4;filter:url(#filter_2.6666667461395);stroke:#000;stroke-opacity:.4}.st29,.st30{fill:#fff;stroke:#c7c8c8;stroke-width:2.25}.st30{fill:#fbe5d5;stroke-width:.25}.st31{fill:#3c63ac}.st32{stroke:#30518f;stroke-width:.75}.st33{fill:#000;font-family:Calibri;font-size:1.00001em;font-weight:700}.st34{fill:#a5a5a5;font-size:.83333em}.st35{font-size:1em;font-style:italic}.st36{fill:none;fill-rule:evenodd;font-size:12px;overflow:visible;stroke-linecap:square;stroke-miterlimit:3}</style><defs id="Filters"><filter id="filter_2.6666667461395"><feGaussianBlur stdDeviation="2.667"/></filter></defs><g><title>SAP &amp; SAR</title><g id="shape136-1" transform="translate(1041.75,-168.753)"><title>Rectangle.136</title><desc>POA&amp;M Entries POA&amp;M ID Impacted Controls Weakness Details Imp...</desc><rect width="153.995" height="158.522" x="0" y="633.478" class="st1"/><text x="44.53" y="644.98" class="st2">POA&amp;M Entries<tspan x="55.06" class="st3" dy="1em">POA</tspan><tspan class="st3">&amp;</tspan><tspan class="st3">M ID</tspan><tspan x="39.6" class="st3" dy="1em">Impacted Controls</tspan><tspan x="41.35" class="st3" dy="1em">Weakness Details</tspan><tspan x="43.76" class="st3" dy="1em">Impacted Assets</tspan><tspan x="53.89" class="st3" dy="1em">Risk Details</tspan><tspan x="36.04" class="st3" dy="1em">Remediation Details</tspan></text></g><g id="shape137-12" transform="translate(1051.51,-180.847)"><title>Rectangle.137</title><desc>Deviation Requests (DRs) False Positives (FP) Risk Adjustment...</desc><rect width="136.8" height="65.813" x="0" y="726.188" class="st4"/><text x="16.06" y="739.19" class="st5">Deviation Requests (DRs)<tspan x="30.1" class="st3" dy="1.2em">False Positives </tspan><tspan class="st3">(</tspan><tspan class="st3">FP</tspan><tspan class="st3">)</tspan><tspan x="23.7" class="st3" dy="1.2em">Risk Adjustments </tspan><tspan class="st3">(</tspan><tspan class="st3">RA</tspan><tspan class="st3">)</tspan><tspan x="6.27" class="st3" dy="1.2em">Operational Requirement </tspan><tspan class="st3">(</tspan><tspan class="st3">OR</tspan><tspan class="st3">)</tspan></text></g><g id="shape138-27" transform="translate(1044.42,-339.747)"><title>Rectangle.138</title><desc>Evidence Inventory Raw Scan Results Deviation Request Substan...</desc><rect width="153.994" height="49.5" x="0" y="742.5" class="st1"/><text x="37.19" y="754" class="st2">Evidence Inventory<tspan x="42.06" class="st3" dy="1em">Raw Scan Results</tspan><tspan x="9.2" class="st3" dy="1em">Deviation Request Substantiation</tspan><tspan x="7.72" class="st6" dy="1em">Other Inventory Entries as Needed</tspan></text></g><g id="shape66-33" transform="translate(590.325,-20.25)"><title>Rectangle.66</title><desc>Results (Earlier Cycle)</desc><rect width="170.002" height="139.5" x="0" y="652.5" class="st1"/><text x="40.37" y="787.5" class="st2">Results (Earlier Cycle)</text></g><g id="shape65-36" transform="translate(583.055,-37.125)"><title>Rectangle.65</title><desc>Results (Last Cycle)</desc><rect width="170.002" height="139.5" x="0" y="652.5" class="st1"/><text x="45.5" y="787.5" class="st2">Results (Last Cycle)</text></g><g id="shape85-39" transform="translate(117,774) rotate(-90)"><title>Sheet.85</title><path d="M0 792 L755 792" class="st7"/></g><g id="shape84-42" transform="translate(-234,774) rotate(-90)"><title>Sheet.84</title><path d="M0 792 L755 792" class="st7"/></g><g id="shape21-45" transform="translate(26.005,-691.411)"><title>Rectangle.6</title><desc>System Security Plan (SSP)</desc><rect width="162.302" height="39.178" x="0" y="752.822" class="st8"/><text x="4.51" y="769.42" class="st9">System Security Plan (SSP)</text></g><g id="shape70-48" transform="translate(930.271,-553.5)"><title>Rectangle.34</title><desc>Plan of Actions and Milestones (POA&amp;M) Author: System Owner</desc><rect width="270" height="158.522" x="0" y="633.478" class="st10"/><text x="15.61" y="645.98" class="st9">Plan of Actions and Milestones (POA&amp;M)<tspan x="88.78" class="st11" dy="1.4em">Author</tspan><tspan class="st11">: </tspan><tspan class="st11">System Owner</tspan></text></g><g id="shape71-54" transform="translate(944.843,-665.1)"><title>Rectangle.71</title><desc>Metadata</desc><rect width="240.855" height="14.4" x="0" y="777.6" class="st12"/><text x="100.5" y="787.8" class="st13">Metadata</text></g><g id="shape72-57" transform="translate(944.843,-561.15)"><title>Rectangle.72</title><desc>Back Matter</desc><rect width="240.855" height="14.4" x="0" y="777.6" class="st12"/><text x="95.54" y="787.8" class="st13">Back Matter</text></g><g id="shape73-60" transform="translate(944.843,-579.6)"><title>Rectangle.73</title><desc>POA&amp;M Entries</desc><rect width="240.855" height="45.9" x="0" y="746.1" class="st14"/><text x="87.96" y="759.1" class="st2">POA&amp;M Entries</text></g><g id="shape74-63" transform="translate(961.718,-585.9)"><title>Rectangle.74</title><desc>Deviation Requests (DRs)</desc><rect width="207.105" height="18.45" x="0" y="773.55" class="st4"/><text x="52.53" y="785.78" class="st13">Deviation Requests (DRs)</text></g><g id="shape89-66" transform="translate(1163.02,928.46) rotate(-178.355)"><title>Multi-Arrow.89</title><path d="M-0.31 785.26 L261.4 777.99 L954.61 661.27 L1045.26 789.83 L1048.04 787.83 L1050.46 803.78 L1036.27 796.1 L1039.1 794.17 L951.4 668.99 L262.61 790.03 L0.31 798.74 L-0.31 785.26 L0 792 L-0.31 785.26 Z" class="st15"/><path d="M-0.31 785.26 L261.4 777.99 L954.61 661.27 L1045.26 789.83 L1048.04 787.83 L1050.46 803.78 L1036.27 796.1 L1039.1 794.17 L951.4 668.99 L262.61 790.03 L0.31 798.74 L-0.31 785.26 L0 792" class="st16"/></g><g id="shape1-69" transform="translate(231.432,-594)"><title>Sheet.1</title><desc>Assessment Plan Author: Assessor</desc><rect width="270" height="175.5" x="0" y="616.5" class="st17"/><text x="86.42" y="629" class="st9">Assessment Plan<tspan x="100.75" class="st11" dy="1.4em">Author</tspan><tspan class="st11">: </tspan><tspan class="st11">Assessor</tspan></text></g><g id="shape2-75" transform="translate(246.005,-724.725)"><title>Rectangle.46</title><desc>Metadata</desc><rect width="240.855" height="14.4" x="0" y="777.6" class="st12"/><text x="100.5" y="787.8" class="st13">Metadata</text></g><g id="shape7-78" transform="translate(627.057,-553.5)"><title>Sheet.7</title><desc>Assessment Results Author: Assessor</desc><rect width="270" height="216" x="0" y="576" class="st10"/><text x="78.13" y="588.5" class="st9">Assessment Results<tspan x="100.75" class="st11" dy="1.4em">Author</tspan><tspan class="st11">: </tspan><tspan class="st11">Assessor</tspan></text></g><g id="shape8-84" transform="translate(641.63,-724.725)"><title>Rectangle.2</title><desc>Metadata</desc><rect width="240.855" height="14.4" x="0" y="777.6" class="st12"/><text x="100.5" y="787.8" class="st13">Metadata</text></g><g id="shape15-87" transform="translate(641.63,893.925) rotate(180)"><title>Simple Arrow</title><desc>Planned vs. Actual</desc><path d="M0 792 L12 780 L12 786 L154.77 786 L154.77 792 L154.77 798 L12 798 L12 804 L0 792 Z" class="st18"/><text x="-114.47" y="-789" class="st13" transform="rotate(180)">Planned vs. Actual</text></g><g id="shape16-90" transform="translate(641.63,913.313) rotate(180)"><title>Simple Arrow.16</title><desc>Planned vs. Actual</desc><path d="M0 792 L12 780 L12 786 L154.77 786 L154.77 792 L154.77 798 L12 798 L12 804 L0 792 Z" class="st18"/><text x="-114.47" y="-789" class="st13" transform="rotate(180)">Planned vs. Actual</text></g><g id="shape17-93" transform="translate(641.63,932.7) rotate(180)"><title>Simple Arrow.17</title><desc>Planned vs. Actual</desc><path d="M0 792 L12 780 L12 786 L154.77 786 L154.77 792 L154.77 798 L12 798 L12 804 L0 792 Z" class="st18"/><text x="-114.47" y="-789" class="st13" transform="rotate(180)">Planned vs. Actual</text></g><g id="shape20-96" transform="translate(188.307,-459)"><title>Rectangle.20</title><desc>Metadata Title, Version, Date Document Labels Revision Histor...</desc><rect width="136.8" height="65.813" x="0" y="726.188" class="st12"/><text x="47.96" y="738.09" class="st5">Metadata<tspan x="29.68" class="st3" dy="1.2em">Title</tspan><tspan class="st3">, </tspan><tspan class="st3">Version</tspan><tspan class="st3">, </tspan><tspan class="st3">Date</tspan><tspan x="33.32" class="st3" dy="1.2em">Document Labels</tspan><tspan x="35.76" class="st3" dy="1.2em">Revision History</tspan><tspan x="34.98" class="st3" dy="1.2em">Prepared By</tspan><tspan class="st3">/</tspan><tspan class="st3">For</tspan></text></g><g id="shape22-109" transform="translate(184.5,-711)"><title>Simple Arrow.22</title><path d="M0 792 L29.25 774 L29.25 783 L302.36 783 L302.36 792 L302.36 801 L29.25 801 L29.25 810 L0 792 Z" class="st19"/></g><g id="shape30-111" transform="translate(497.682,-711)"><title>Simple Arrow.30</title><path d="M0 792 L32.25 774 L32.25 783 L384.8 783 L384.8 792 L384.8 801 L32.25 801 L32.25 810 L0 792 Z" class="st14"/></g><g id="shape33-113" transform="translate(246.005,-703.8)"><title>Rectangle.33</title><desc>Import SSP</desc><rect width="240.855" height="14.4" x="0" y="777.6" class="st20"/><text x="97.63" y="787.8" class="st2">Import SSP</text></g><g id="shape35-116" transform="translate(641.63,-703.8)"><title>Rectangle.35</title><desc>Import Assessment Plan</desc><rect width="240.855" height="14.4" x="0" y="777.6" class="st20"/><text x="70.32" y="787.8" class="st2">Import Assessment Plan</text></g><g id="shape36-119" transform="translate(353.25,-441)"><title>Rectangle.36</title><desc>Subject Components Inventory Items Locations User Types</desc><rect width="169.999" height="58.5" x="0" y="733.5" class="st21"/><text x="69.65" y="745" class="st2">Subject<tspan x="59.07" class="st3" dy="1em">Components</tspan><tspan x="52.92" class="st3" dy="1em">Inventory Items</tspan><tspan x="65.71" class="st3" dy="1em">Locations</tspan><tspan x="62.7" class="st3" dy="1em">User Types</tspan></text></g><g id="shape37-126" transform="translate(188.307,-229.5)"><title>Rectangle.37</title><desc>Back Matter Laws/Regulations, Standards/Guidance Title, Versi...</desc><rect width="136.8" height="94.5" x="0" y="697.5" class="st12"/><text x="42.91" y="711.75" class="st5">Back Matter<tspan x="31.43" class="st3" dy="1.2em">Laws</tspan><tspan class="st3">/</tspan><tspan class="st3">Regulations</tspan><tspan class="st3">,</tspan><tspan x="26.95" class="st3" dy="1.2em">Standards</tspan><tspan class="st3">/</tspan><tspan class="st3">Guidance</tspan><tspan x="29.68" class="st3" dy="1.2em">Title</tspan><tspan class="st3">, </tspan><tspan class="st3">Version</tspan><tspan class="st3">, </tspan><tspan class="st3">Date</tspan><tspan x="40.15" class="st3" dy="1.2em">Ref </tspan><tspan class="st3">#</tspan><tspan class="st3">/</tspan><tspan class="st3">Citation</tspan><tspan x="41.49" class="st3" dy="1.2em">Citation Type</tspan><tspan x="7.35" class="st6" dy="1.2em">Other Attachments as Needed</tspan></text></g><g id="shape38-147" transform="translate(29.25,-249.75)"><title>Rectangle.38</title><desc>Via link to SSP System Name System Name (Short) Sensitivity L...</desc><rect width="136.8" height="175.5" x="0" y="616.5" class="st22"/><text x="39.01" y="629.5" class="st23">Via link to SSP<tspan x="40.49" class="st24" dy="1.2em">System Name</tspan><tspan x="25.35" class="st24" dy="1.2em">System Name </tspan><tspan class="st24">(</tspan><tspan class="st24">Short</tspan><tspan class="st24">)</tspan><tspan x="36.1" class="st24" dy="1.2em">Sensitivity Level</tspan><tspan x="33.87" class="st24" dy="1.2em">System Identifier</tspan><tspan x="4.01" class="st24" dy="2.4em">Applicable Baseline </tspan><tspan class="st24">(</tspan><tspan class="st24">via SSP link </tspan><tspan x="48.17" class="st24" dy="1.2em">to Profile</tspan><tspan class="st24">)</tspan><tspan x="26.66" class="st24" dy="2.4em">System Components</tspan><tspan x="33.02" class="st24" dy="1.2em">System Inventory</tspan><tspan x="31.23" class="st24" dy="1.2em">System location</tspan><tspan class="st24">(</tspan><tspan class="st24">s</tspan><tspan class="st24">)</tspan><tspan x="36.2" class="st24" dy="1.2em">Users and Roles</tspan></text></g><g id="shape39-169" transform="translate(188.307,-337.5)"><title>Rectangle.39</title><desc>Import URI “imports” System Security Plan</desc><rect width="136.8" height="94.5" x="0" y="697.5" class="st21"/><text x="54.12" y="709" class="st2">Import<tspan x="61.22" class="st3" dy="1em">URI</tspan><tspan x="48.44" class="st3" dy="2em">“</tspan><tspan class="st3">imports</tspan><tspan class="st3">”</tspan><tspan x="26.36" class="st3" dy="1em">System Security Plan</tspan></text></g><g id="shape40-177" transform="translate(576,-441)"><title>Rectangle.40</title><desc>Subject Components Inventory Items Locations User Types</desc><rect width="170.002" height="58.5" x="0" y="733.5" class="st1"/><text x="69.65" y="745" class="st2">Subject<tspan x="59.07" class="st3" dy="1em">Components</tspan><tspan x="52.92" class="st3" dy="1em">Inventory Items</tspan><tspan x="65.71" class="st3" dy="1em">Locations</tspan><tspan x="62.71" class="st3" dy="1em">User Types</tspan></text></g><g id="shape41-184" transform="translate(353.25,-310.5)"><title>Rectangle.41</title><desc>Assets (via Role IDs and Party IDs) Assessment Team Penetrati...</desc><rect width="169.999" height="126" x="0" y="666" class="st21"/><text x="71.74" y="677.5" class="st2">Assets<tspan x="30.64" class="st3" dy="2em">(</tspan><tspan class="st3">via Role IDs and Party IDs</tspan><tspan class="st3">)</tspan><tspan x="48.57" class="st3" dy="1em">Assessment Team </tspan><tspan x="38.79" class="st3" dy="1em">Penetration Test Team</tspan><tspan x="34.12" class="st3" dy="1em">System Owner Test POCs</tspan><tspan x="25.99" class="st3" dy="1em">Individuals to be Interviewed</tspan><tspan x="74.19" class="st3" dy="2em">Tools</tspan><tspan x="58.91" class="st3" dy="1em">Assumptions</tspan><tspan x="57.63" class="st3" dy="1em">Methodology</tspan><tspan x="29.57" class="st3" dy="1em">Rules of Engagement </tspan><tspan class="st3">(</tspan><tspan class="st3">ROE</tspan><tspan class="st3">)</tspan></text></g><g id="shape42-201" transform="translate(576,-310.5)"><title>Rectangle.42</title><desc>Assets (via Role IDs and Party IDs) Assessment Team Penetrati...</desc><rect width="170.002" height="126" x="0" y="666" class="st1"/><text x="71.74" y="677.5" class="st2">Assets<tspan x="30.64" class="st3" dy="2em">(</tspan><tspan class="st3">via Role IDs and Party IDs</tspan><tspan class="st3">)</tspan><tspan x="48.57" class="st3" dy="1em">Assessment Team </tspan><tspan x="38.79" class="st3" dy="1em">Penetration Test Team</tspan><tspan x="34.12" class="st3" dy="1em">System Owner Test POCs</tspan><tspan x="25.99" class="st3" dy="1em">Individuals to be Interviewed</tspan><tspan x="74.19" class="st3" dy="2em">Tools</tspan><tspan x="58.91" class="st3" dy="1em">Assumptions</tspan><tspan x="57.64" class="st3" dy="1em">Methodology</tspan><tspan x="29.57" class="st3" dy="1em">Rules of Engagement </tspan><tspan class="st3">(</tspan><tspan class="st3">ROE</tspan><tspan class="st3">)</tspan></text></g><g id="shape45-218" transform="translate(353.25,-256.5)"><title>Rectangle.45</title><desc>Activities Schedule Manual Tests Planned Penetration Test</desc><rect width="169.999" height="49.5" x="0" y="742.5" class="st21"/><text x="65.85" y="754" class="st2">Activities<tspan x="66.58" class="st3" dy="1em">Schedule</tspan><tspan x="57.89" class="st3" dy="1em">Manual Tests</tspan><tspan x="33.6" class="st3" dy="1em">Planned Penetration Test</tspan></text></g><g id="shape46-224" transform="translate(576,-256.5)"><title>Rectangle.46</title><desc>Activities Schedule Manual Tests Planned Penetration Test</desc><rect width="170.002" height="49.5" x="0" y="742.5" class="st1"/><text x="65.85" y="754" class="st2">Activities<tspan x="66.59" class="st3" dy="1em">Schedule</tspan><tspan x="57.89" class="st3" dy="1em">Manual Tests</tspan><tspan x="33.61" class="st3" dy="1em">Planned Penetration Test</tspan></text></g><g id="shape51-230" transform="translate(576,1210.5) rotate(180)"><title>Simple Arrow.51</title><desc>Planned vs. Actual</desc><path d="M0 792 L12 765 L12 778.5 L52.75 778.5 L52.75 792 L52.75 805.5 L12 805.5 L12 819 L0 792 Z" class="st18"/><text x="-42.87" y="-795" class="st13" transform="rotate(180)">Planned <tspan x="-45.83" class="st25" dy="1.2em">vs</tspan>. Actual</text></g><g id="shape53-234" transform="translate(765.277,-351)"><title>Rectangle.53</title><desc>Import URI “imports” Assessment Plan</desc><rect width="136.8" height="81" x="0" y="711" class="st1"/><text x="54.12" y="722.5" class="st2">Import<tspan x="61.22" class="st3" dy="1em">URI</tspan><tspan x="48.44" class="st3" dy="2em">“</tspan><tspan class="st3">imports</tspan><tspan class="st3">”</tspan><tspan x="34.53" class="st3" dy="1em">Assessment Plan</tspan></text></g><g id="shape54-242" transform="translate(765.277,-459)"><title>Rectangle.54</title><desc>Metadata Title, Version, Date Document Labels Revision Histor...</desc><rect width="136.8" height="65.813" x="0" y="726.188" class="st12"/><text x="47.96" y="738.09" class="st5">Metadata<tspan x="29.68" class="st3" dy="1.2em">Title</tspan><tspan class="st3">, </tspan><tspan class="st3">Version</tspan><tspan class="st3">, </tspan><tspan class="st3">Date</tspan><tspan x="33.32" class="st3" dy="1.2em">Document Labels</tspan><tspan x="35.76" class="st3" dy="1.2em">Revision History</tspan><tspan x="34.98" class="st3" dy="1.2em">Prepared By</tspan><tspan class="st3">/</tspan><tspan class="st3">For</tspan></text></g><g id="shape59-255" transform="translate(30.807,-544.5)"><title>Sheet.59</title><path d="M0 792 L1167.19 792" class="st26"/></g><g id="shape64-258" transform="translate(765.277,-90)"><title>Rectangle.64</title><desc>Back Matter Laws/Regulations, Standards/Guidance Title, Versi...</desc><rect width="136.8" height="234" x="0" y="558" class="st12"/><text x="42.91" y="576" class="st5">Back Matter<tspan x="31.43" class="st3" dy="1.2em">Laws</tspan><tspan class="st3">/</tspan><tspan class="st3">Regulations</tspan><tspan class="st3">,</tspan><tspan x="26.95" class="st3" dy="1.2em">Standards</tspan><tspan class="st3">/</tspan><tspan class="st3">Guidance</tspan><tspan x="29.68" class="st3" dy="1.2em">Title</tspan><tspan class="st3">, </tspan><tspan class="st3">Version</tspan><tspan class="st3">, </tspan><tspan class="st3">Date</tspan><tspan x="40.15" class="st3" dy="1.2em">Ref </tspan><tspan class="st3">#</tspan><tspan class="st3">/</tspan><tspan class="st3">Citation</tspan><tspan x="41.49" class="st3" dy="1.2em">Citation Type</tspan><tspan x="31.53" class="st25" dy="2.4em">Includes Evidence </tspan><tspan x="40.28" class="st25" dy="1.2em">Attachments</tspan>:<tspan x="51.28" class="st3" dy="1.2em">Artifacts</tspan><tspan x="36.03" class="st3" dy="1.2em">Interview Notes</tspan><tspan x="42.32" class="st3" dy="1.2em">Screen Shots</tspan><tspan x="54.29" class="st3" dy="1.2em">Photos</tspan><tspan x="34.06" class="st3" dy="1.2em">Raw Tool Output</tspan><tspan x="42.57" class="st3" dy="1.2em">Tool Reports</tspan><tspan x="19.62" class="st3" dy="1.2em">Penetration Test Report</tspan><tspan x="7.35" class="st6" dy="2.4em">Other Attachments as Needed</tspan></text></g><g id="shape68-288" transform="translate(49.5,-32.625)"><title>Rectangle.68</title><desc>Operational Concept 1. The assessor Develops assessment plan ...</desc><g id="shadow68-289" class="st27" transform="matrix(1,0,0,1,2.12132,2.12132)"><rect width="463.5" height="168.75" x="0" y="623.25" class="st28"/></g><rect width="463.5" height="168.75" x="0" y="623.25" class="st29"/><text x="188.72" y="636.25" class="st2">Operational Concept<tspan x="4" class="st3" dy="1.2em">1</tspan><tspan class="st3">. </tspan><tspan class="st3">The assessor Develops assessment plan content</tspan><tspan x="4" class="st3" dy="1.2em"> </tspan><tspan class="st3">This is the </tspan><tspan class="st6">planned </tspan><tspan class="st3">Assessment Subject</tspan><tspan class="st3">, </tspan><tspan class="st3">Assets</tspan><tspan class="st3">, </tspan><tspan class="st3">and Activities</tspan><tspan class="st3">.</tspan><tspan x="4" class="st3" dy="1.2em">2</tspan><tspan class="st3">. </tspan><tspan class="st3">The assessor</tspan><tspan class="st3">’</tspan><tspan class="st3">s tool duplicates plan content to results using same syntax model</tspan><tspan class="st3">.</tspan><tspan x="4" class="st3" dy="1.2em">3</tspan><tspan class="st3">. </tspan><tspan class="st3">The assessor makes changes in the assessment results to the</tspan><tspan x="4" class="st3" dy="1.2em"> </tspan><tspan class="st3">Objectives</tspan><tspan class="st3">, </tspan><tspan class="st3">Subject</tspan><tspan class="st3">, </tspan><tspan class="st3">Assets</tspan><tspan class="st3">, </tspan><tspan class="st3">and Activities based on </tspan><tspan class="st6">actual</tspan><tspan class="st3"> </tspan><tspan class="st3">execution</tspan><tspan class="st3">.</tspan><tspan x="4" class="st3" dy="1.2em">4</tspan><tspan class="st3">. </tspan><tspan class="st3">The assessor captures </tspan><tspan class="st6">current </tspan><tspan class="st3">Assessment Results in the Results assembly</tspan><tspan class="st3">, </tspan><tspan class="st3">with a unique ID for this </tspan><tspan x="4" class="st3" dy="1.2em">assessment</tspan><tspan class="st3">, </tspan><tspan class="st3">as well as dates for this assessment</tspan><tspan class="st3">. </tspan><tspan x="4" class="st3" dy="1.2em">5</tspan><tspan class="st3">. </tspan><tspan class="st3">The assessor</tspan><tspan class="st3">’</tspan><tspan class="st3">s tool imports relevant previous assessment results into the file</tspan><tspan class="st3">, </tspan><tspan class="st3">each in its own results </tspan><tspan x="4" class="st3" dy="1.2em">assembly with its own ID and dates</tspan><tspan class="st3">. </tspan><tspan x="4" class="st3" dy="2.4em">Assessment deviations are identified by comparing the assessment plan content </tspan><tspan class="st3">(</tspan><tspan class="st3">Planned</tspan><tspan class="st3">: </tspan><tspan class="st3">Objectives</tspan><tspan class="st3">, </tspan><tspan class="st3">Subject</tspan><tspan class="st3">, </tspan><tspan x="4" class="st3" dy="1.2em">Assets</tspan><tspan class="st3">, </tspan><tspan class="st3">and Activities</tspan><tspan class="st3">) </tspan><tspan class="st3">to the assessment results content </tspan><tspan class="st3">(</tspan><tspan class="st3">Actual</tspan><tspan class="st3">: </tspan><tspan class="st3">Objectives</tspan><tspan class="st3">, </tspan><tspan class="st3">Subject</tspan><tspan class="st3">, </tspan><tspan class="st3">Assets</tspan><tspan class="st3">, </tspan><tspan class="st3">and Activities</tspan><tspan class="st3">).</tspan></text></g><g id="shape76-371" transform="translate(1052.28,-396.757)"><title>Rectangle.76</title><desc>Import URI “imports” System Security Plan</desc><rect width="136.8" height="65.813" x="0" y="726.188" class="st30"/><text x="54.12" y="739.19" class="st2">Import<tspan x="61.22" class="st3" dy="1.2em">URI</tspan><tspan x="48.44" class="st3" dy="2.4em">“</tspan><tspan class="st3">imports</tspan><tspan class="st3">”</tspan><tspan x="26.36" class="st3" dy="1.2em">System Security Plan</tspan></text></g><g id="shape77-379" transform="translate(1052.28,-469.584)"><title>Rectangle.77</title><desc>Metadata Date Revision History Prepared By/For</desc><rect width="136.8" height="59.82" x="0" y="732.18" class="st12"/><text x="47.96" y="747.09" class="st5">Metadata<tspan x="58.77" class="st3" dy="1.2em">Date</tspan><tspan x="35.76" class="st3" dy="1.2em">Revision History</tspan><tspan x="34.98" class="st3" dy="1.2em">Prepared By</tspan><tspan class="st3">/</tspan><tspan class="st3">For</tspan></text></g><g id="shape83-387" transform="translate(285.419,76.1233) rotate(-35.0494)"><title>Multi-Arrow</title><path d="M-0.45 786.28 L196.22 924.85 L322.7 755.17 L371.28 787.77 L371.59 779.7 L380.04 800.31 L357.79 799.21 L365.29 796.23 L324.35 765.52 L197.96 935.66 L0.45 797.72 L-0.45 786.28 L0 792 L-0.45 786.28 Z" class="st31"/><path d="M-0.45 786.28 L196.22 924.85 L322.7 755.17 L371.28 787.77 L371.59 779.7 L380.04 800.31 L357.79 799.21 L365.29 796.23 L324.35 765.52 L197.96 935.66 L0.45 797.72 L-0.45 786.28 L0 792" class="st32"/></g><g id="shape56-390" transform="translate(576,-51.75)"><title>Rectangle.56</title><desc>Results (Current) Test Case Workbook Observations/Evidence Au...</desc><rect width="170.002" height="139.5" x="0" y="652.5" class="st1"/><text x="49.97" y="664" class="st2">Results (Current)<tspan x="13.53" class="st3" dy="1em">Test Case Workbook Observations</tspan><tspan class="st3">/</tspan><tspan x="66.81" class="st3" dy="1em">Evidence</tspan><tspan x="34.39" class="st3" dy="2em">Automated Test Findings</tspan><tspan x="38.51" class="st3" dy="1em">&amp; </tspan><tspan class="st3">Scanner Tool Output</tspan><tspan x="33.32" class="st3" dy="2em">Penetration Test Findings</tspan><tspan x="54.21" class="st3" dy="2em">Identified Risks</tspan><tspan x="51.25" class="st3" dy="1em">Risk Calculations</tspan><tspan x="27.13" class="st3" dy="1em">Recommended Remediation</tspan></text></g><g id="shape87-403" transform="translate(916.771,-726.3)"><title>Rectangle.47</title><desc>Open Security Controls Assessment Language (OSCAL) Second-Lev...</desc><rect width="283.5" height="38.7" x="0" y="753.3" class="st20"/><text x="7.38" y="754.65" class="st33">Open Security Controls Assessment Language (OSCAL)<tspan x="87.4" class="st25" dy="1.2em">Second</tspan>-Level Models:<tspan x="25.2" class="st25" dy="1.2em">Assessment Plan</tspan>, Assessment Results, POA&amp;M<tspan x="109.6" class="st34" dy="1.44em">March </tspan><tspan class="st34">16</tspan><tspan class="st34">, </tspan><tspan class="st34">2020</tspan></text></g><g id="shape92-412" transform="translate(962.593,-645.75)"><title>Rectangle.92</title><desc>Import SSP</desc><rect width="210.584" height="18" x="0" y="774" class="st20"/><text x="82.49" y="786" class="st2">Import SSP</text></g><g id="shape99-415" transform="translate(641.63,-566.55)"><title>Rectangle.8</title><desc>Back Matter</desc><rect width="240.854" height="14.4" x="0" y="777.6" class="st12"/><text x="95.54" y="787.8" class="st13">Back Matter</text></g><g id="shape100-418" transform="translate(641.63,-663.488)"><title>Rectangle.9</title><desc>Subject [Actual]</desc><rect width="240.854" height="14.4" x="0" y="777.6" class="st14"/><text x="87.38" y="787.8" class="st2">Subject<tspan class="st35"> </tspan><tspan class="st35">[</tspan><tspan class="st35">Actual</tspan><tspan class="st35">]</tspan></text></g><g id="shape101-425" transform="translate(641.63,-644.1)"><title>Rectangle.10</title><desc>Assets (Tools, Teams, etc.) [Actual]</desc><rect width="240.854" height="14.4" x="0" y="777.6" class="st14"/><text x="48.1" y="787.8" class="st2">Assets (Tools, Teams, etc.)<tspan class="st35"> </tspan><tspan class="st35">[</tspan><tspan class="st35">Actual</tspan><tspan class="st35">]</tspan></text></g><g id="shape102-432" transform="translate(641.63,-624.713)"><title>Rectangle.11</title><desc>Activities [Actual]</desc><rect width="240.854" height="14.4" x="0" y="777.6" class="st14"/><text x="83.57" y="787.8" class="st2">Activities<tspan class="st35"> </tspan><tspan class="st35">[</tspan><tspan class="st35">Actual</tspan><tspan class="st35">]</tspan></text></g><g id="shape103-439" transform="translate(641.63,-585.938)"><title>Rectangle.12</title><desc>Results</desc><rect width="240.854" height="14.4" x="0" y="777.6" class="st14"/><text x="105.46" y="787.8" class="st2">Results</text></g><g id="shape104-442" transform="translate(641.63,-682.875)"><title>Rectangle.63</title><desc>Objectives [Actual]</desc><rect width="240.854" height="14.4" x="0" y="777.6" class="st14"/><text x="80.94" y="787.8" class="st2">Objectives<tspan class="st35"> </tspan><tspan class="st35">[</tspan><tspan class="st35">Actual</tspan><tspan class="st35">]</tspan></text></g><g id="shape105-449" transform="translate(246.005,-605.325)"><title>Rectangle.5</title><desc>Back Matter</desc><rect width="240.854" height="14.4" x="0" y="777.6" class="st12"/><text x="95.54" y="787.8" class="st13">Back Matter</text></g><g id="shape106-452" transform="translate(246.005,-682.875)"><title>Rectangle.106</title><desc>Objectives [Planned]</desc><rect width="240.854" height="14.4" x="0" y="777.6" class="st19"/><text x="77.36" y="787.8" class="st2">Objectives<tspan class="st35"> </tspan><tspan class="st35">[</tspan><tspan class="st35">Planned</tspan><tspan class="st35">]</tspan></text></g><g id="shape107-459" transform="translate(246.005,-644.1)"><title>Rectangle.13</title><desc>Assets (Tools, Teams, ROE, etc.) [Planned]</desc><rect width="240.854" height="14.4" x="0" y="777.6" class="st19"/><text x="33.47" y="787.8" class="st2">Assets (Tools, Teams, ROE, etc.)<tspan class="st35"> </tspan><tspan class="st35">[</tspan><tspan class="st35">Planned</tspan><tspan class="st35">]</tspan></text></g><g id="shape108-466" transform="translate(246.005,-624.713)"><title>Rectangle.14</title><desc>Activities [Planned]</desc><rect width="240.854" height="14.4" x="0" y="777.6" class="st19"/><text x="80" y="787.8" class="st2">Activities<tspan class="st35"> </tspan><tspan class="st35">[</tspan><tspan class="st35">Planned</tspan><tspan class="st35">]</tspan></text></g><g id="shape109-473" transform="translate(246.005,-663.487)"><title>Rectangle.62</title><desc>Subject [Planned]</desc><rect width="240.854" height="14.4" x="0" y="777.6" class="st19"/><text x="83.8" y="787.8" class="st2">Subject<tspan class="st35"> </tspan><tspan class="st35">[</tspan><tspan class="st35">Planned</tspan><tspan class="st35">]</tspan></text></g><g id="shape110-480" transform="translate(641.63,952.087) rotate(180)"><title>Simple Arrow.110</title><desc>Planned vs. Actual</desc><path d="M0 792 L12 780 L12 786 L154.77 786 L154.77 792 L154.77 798 L12 798 L12 804 L0 792 Z" class="st18"/><text x="-114.47" y="-789" class="st13" transform="rotate(180)">Planned vs. Actual</text></g><g id="shape112-483" transform="translate(353.25,-504)"><title>Rectangle.112</title><desc>Objectives Controls Control Objectives</desc><rect width="169.999" height="36" x="0" y="756" class="st21"/><text x="63.21" y="767.5" class="st2">Objectives<tspan x="67.91" class="st3" dy="1em">Controls</tspan><tspan x="47.48" class="st3" dy="1em">Control Objectives</tspan></text></g><g id="shape113-488" transform="translate(576,-504)"><title>Rectangle.113</title><desc>Objectives Controls Control Objectives &amp; Methods</desc><rect width="170.002" height="36" x="0" y="756" class="st1"/><text x="63.21" y="767.5" class="st2">Objectives<tspan x="67.91" class="st3" dy="1em">Controls</tspan><tspan x="23.52" class="st3" dy="1em">Control Objectives </tspan><tspan class="st3">&amp; </tspan><tspan class="st3">Methods</tspan></text></g><g id="shape116-495" transform="translate(641.63,-605.325)"><title>Rectangle.116</title><desc>Evidence Inventory</desc><rect width="240.854" height="14.4" x="0" y="777.6" class="st14"/><text x="80.62" y="787.8" class="st2">Evidence Inventory</text></g><g id="shape128-498" transform="translate(576,-194.625)"><title>Rectangle.128</title><desc>Evidence Inventory Interview Notes Raw Scan Results Screen Sh...</desc><rect width="170.002" height="58.5" x="0" y="733.5" class="st1"/><text x="45.2" y="745" class="st2">Evidence Inventory<tspan x="52.63" class="st3" dy="1em">Interview Notes</tspan><tspan x="50.06" class="st3" dy="1em">Raw Scan Results</tspan><tspan x="58.92" class="st3" dy="1em">Screen Shots</tspan><tspan x="15.73" class="st6" dy="1em">Other Inventory Entries as Needed</tspan></text></g><g id="shape130-505" transform="translate(576,1060.88) rotate(180)"><title>Simple Arrow.130</title><desc>Planned vs. Actual</desc><path d="M0 792 L12 765 L12 778.5 L52.75 778.5 L52.75 792 L52.75 805.5 L12 805.5 L12 819 L0 792 Z" class="st18"/><text x="-42.87" y="-795" class="st13" transform="rotate(180)">Planned <tspan x="-45.83" class="st25" dy="1.2em">vs</tspan>. Actual</text></g><g id="shape131-509" transform="translate(576,1113.75) rotate(180)"><title>Simple Arrow.131</title><desc>Planned vs. Actual</desc><path d="M0 792 L12 765 L12 778.5 L52.75 778.5 L52.75 792 L52.75 805.5 L12 805.5 L12 819 L0 792 Z" class="st18"/><text x="-42.87" y="-795" class="st13" transform="rotate(180)">Planned <tspan x="-45.83" class="st25" dy="1.2em">vs</tspan>. Actual</text></g><g id="shape132-513" transform="translate(576,1302.75) rotate(180)"><title>Simple Arrow.132</title><desc>Planned vs. Actual</desc><path d="M0 792 L12 765 L12 778.5 L52.75 778.5 L52.75 792 L52.75 805.5 L12 805.5 L12 819 L0 792 Z" class="st18"/><text x="-42.87" y="-795" class="st13" transform="rotate(180)">Planned <tspan x="-45.83" class="st25" dy="1.2em">vs</tspan>. Actual</text></g><g id="shape139-517" transform="translate(1050.35,-87.1875)"><title>Rectangle.139</title><desc>Back Matter DR Evidence Attachments Raw Tool Output Tool Repo...</desc><rect width="136.8" height="65.813" x="0" y="726.188" class="st12"/><text x="42.91" y="738.09" class="st5">Back Matter<tspan x="16.04" class="st3" dy="1.2em">DR Evidence Attachments</tspan><tspan x="34.06" class="st3" dy="1.2em">Raw Tool Output</tspan><tspan x="42.57" class="st3" dy="1.2em">Tool Reports</tspan><tspan x="7.35" class="st6" dy="1.2em">Other Attachments as Needed</tspan></text></g><g id="shape140-524" transform="translate(944.843,-630)"><title>Rectangle.140</title><desc>Evidence Inventory</desc><rect width="240.854" height="14.4" x="0" y="777.6" class="st14"/><text x="80.62" y="787.8" class="st2">Evidence Inventory</text></g><g id="shape152-527" transform="translate(914.85,-382.5)"><title>Rectangle.152</title><desc>Via link to SSP System Name System Name (Short) Sensitivity L...</desc><rect width="114.3" height="139.5" x="0" y="652.5" class="st22"/><text x="27.76" y="665.5" class="st23">Via link to SSP<tspan x="29.24" class="st24" dy="1.2em">System Name</tspan><tspan x="14.1" class="st24" dy="1.2em">System Name </tspan><tspan class="st24">(</tspan><tspan class="st24">Short</tspan><tspan class="st24">)</tspan><tspan x="24.85" class="st24" dy="1.2em">Sensitivity Level</tspan><tspan x="22.62" class="st24" dy="1.2em">System Identifier</tspan><tspan x="9.39" class="st24" dy="2.4em">Applicable Baseline </tspan><tspan class="st24">(</tspan><tspan class="st24">via </tspan><tspan x="20.29" class="st24" dy="1.2em">SSP link to Profile</tspan><tspan class="st24">)</tspan><tspan x="15.41" class="st24" dy="2.4em">System Components</tspan><tspan x="21.77" class="st24" dy="1.2em">System Inventory</tspan></text></g></g></svg>